<svg xmlns="http://www.w3.org/2000/svg" viewBox="-12 -12 624 284"><defs><clipPath id="c2"><circle cx="72" cy="173" r="55"/><circle cx="186" cy="157" r="84"/><circle cx="300" cy="148" r="99"/><circle cx="414" cy="159" r="79"/><circle cx="528" cy="176" r="48"/><circle cx="129" cy="136" r="70"/><circle cx="243" cy="114" r="93"/><circle cx="357" cy="112" r="96"/><circle cx="471" cy="125" r="82"/><rect x="72" y="156" width="456" height="47" rx="23"/></clipPath></defs>
<g fill="#4a3d6e" stroke="#4a3d6e" stroke-width="14" stroke-linejoin="round"><circle cx="72" cy="173" r="55"/><circle cx="186" cy="157" r="84"/><circle cx="300" cy="148" r="99"/><circle cx="414" cy="159" r="79"/><circle cx="528" cy="176" r="48"/><circle cx="129" cy="136" r="70"/><circle cx="243" cy="114" r="93"/><circle cx="357" cy="112" r="96"/><circle cx="471" cy="125" r="82"/><rect x="72" y="156" width="456" height="47" rx="23"/></g>
<g fill="#ffffff"><circle cx="72" cy="173" r="55"/><circle cx="186" cy="157" r="84"/><circle cx="300" cy="148" r="99"/><circle cx="414" cy="159" r="79"/><circle cx="528" cy="176" r="48"/><circle cx="129" cy="136" r="70"/><circle cx="243" cy="114" r="93"/><circle cx="357" cy="112" r="96"/><circle cx="471" cy="125" r="82"/><rect x="72" y="156" width="456" height="47" rx="23"/></g>
<g clip-path="url(#c2)"><ellipse cx="300" cy="229" rx="312" ry="68" fill="#c9cdf2"/><ellipse cx="276" cy="244" rx="240" ry="52" fill="#aeb4ea"/>
<circle cx="212" cy="93" r="18" fill="#fff" opacity=".9"/></g></svg>