<svg xmlns="http://www.w3.org/2000/svg" viewBox="-12 -12 624 284"><defs><clipPath id="c3"><circle cx="72" cy="173" r="55"/><circle cx="300" cy="140" r="115"/><circle cx="528" cy="173" r="55"/><circle cx="186" cy="124" r="83"/><circle cx="414" cy="122" r="85"/><rect x="72" y="156" width="456" height="47" rx="23"/></clipPath></defs>
<g fill="#4a3d6e" stroke="#4a3d6e" stroke-width="14" stroke-linejoin="round"><circle cx="72" cy="173" r="55"/><circle cx="300" cy="140" r="115"/><circle cx="528" cy="173" r="55"/><circle cx="186" cy="124" r="83"/><circle cx="414" cy="122" r="85"/><rect x="72" y="156" width="456" height="47" rx="23"/></g>
<g fill="#ffffff"><circle cx="72" cy="173" r="55"/><circle cx="300" cy="140" r="115"/><circle cx="528" cy="173" r="55"/><circle cx="186" cy="124" r="83"/><circle cx="414" cy="122" r="85"/><rect x="72" y="156" width="456" height="47" rx="23"/></g>
<g clip-path="url(#c3)"><ellipse cx="300" cy="229" rx="312" ry="68" fill="#c9cdf2"/><ellipse cx="276" cy="244" rx="240" ry="52" fill="#aeb4ea"/>
<circle cx="155" cy="103" r="18" fill="#fff" opacity=".9"/></g></svg>