<svg xmlns="http://www.w3.org/2000/svg" viewBox="0 0 380 170"><g fill="#fff" stroke="#29407e" stroke-width="7" stroke-opacity=".55"><circle cx="60" cy="100" r="44"/><circle cx="130" cy="64" r="64"/><circle cx="210" cy="58" r="58"/><circle cx="282" cy="86" r="46"/><circle cx="340" cy="106" r="30"/><rect x="60" y="130" width="280" height="30" rx="15"/></g><g fill="#fff"><circle cx="60" cy="100" r="44"/><circle cx="130" cy="64" r="64"/><circle cx="210" cy="58" r="58"/><circle cx="282" cy="86" r="46"/><circle cx="340" cy="106" r="30"/><rect x="60" y="130" width="280" height="30" rx="15"/></g><clipPath id="cc"><g><circle cx="60" cy="100" r="44"/><circle cx="130" cy="64" r="64"/><circle cx="210" cy="58" r="58"/><circle cx="282" cy="86" r="46"/><circle cx="340" cy="106" r="30"/><rect x="60" y="130" width="280" height="30" rx="15"/></g></clipPath><g clip-path="url(#cc)" fill="#dbe8ff"><circle cx="60" cy="115" r="35"/><circle cx="130" cy="86" r="51"/><circle cx="210" cy="78" r="46"/><circle cx="282" cy="102" r="37"/><circle cx="340" cy="116" r="24"/></g><g fill="#fff"><circle cx="55" cy="93" r="34"/><circle cx="122" cy="54" r="50"/><circle cx="203" cy="49" r="45"/><circle cx="276" cy="79" r="36"/><circle cx="336" cy="102" r="23"/></g></svg>